<svg version="1.1" xmlns="http://www.w3.org/2000/svg" xmlns:xlink="http://www.w3.org/1999/xlink" viewBox="0 0 600 300">
  <path d="M185.5,134h-10a.5.5,0,0,0-.5.5v13a.5.5,0,0,0,.5.5h10a.5.5,0,0,0,.5-.5v-13a.5.5,0,0,0-.5-.5Zm-9.5,1h9v12h-9Z M198.5,134h-10a.5.5,0,0,0-.5.5v13a.5.5,0,0,0,.5.5h10a.5.5,0,0,0,.5-.5v-13a.5.5,0,0,0-.5-.5Zm-9.5,1h9v12h-9Z M211.8536,134.1464A.5035.5035,0,0,0,211.5,134h-10a.5.5,0,0,0-.5.5v13a.5.5,0,0,0,.5.5h10a.5.5,0,0,0,.5-.5v-13A.5035.5035,0,0,0,211.8536,134.1464ZM202,135h9v12h-9Z M198.5,166h-10a.5.5,0,0,0-.5.5v13a.5.5,0,0,0,.5.5h10a.5.5,0,0,0,.5-.5v-13a.5.5,0,0,0-.5-.5Zm-9.5,1h9v12h-9Z M211.5,166h-10a.5.5,0,0,0-.5.5v13a.5.5,0,0,0,.5.5h10a.5.5,0,0,0,.5-.5v-13a.5.5,0,0,0-.5-.5Zm-9.5,1h9v12h-9Z M198.5,150h-10a.5.5,0,0,0-.5.5v13a.5.5,0,0,0,.5.5h10a.5.5,0,0,0,.5-.5v-13a.5.5,0,0,0-.5-.5Zm-9.5,1h9v12h-9Z M211.5,150h-10a.5.5,0,0,0-.5.5v13a.5.5,0,0,0,.5.5h10a.5.5,0,0,0,.5-.5v-13a.5.5,0,0,0-.5-.5Zm-9.5,1h9v12h-9Z M180.7007,149.4551h-.4014A5.3,5.3,0,0,0,175,154.7544V170.5a.5.5,0,0,0,.5.5h10a.5.5,0,0,0,.5-.5V154.7544A5.3,5.3,0,0,0,180.7007,149.4551ZM185,170h-9V154.7544a4.3,4.3,0,0,1,4.2993-4.2993h.4014A4.3,4.3,0,0,1,185,154.7544Z M185.5,174h-10a.5.5,0,0,0,0,1h10a.5.5,0,0,0,0-1Z M185.5,179h-10a.5.5,0,0,0,0,1h10a.5.5,0,0,0,0-1Z M185.5,184.0625h-10a.5.5,0,0,0,0,1h10a.5.5,0,0,0,0-1Z M498.5,269H440V224h5.9736a.5.5,0,0,0,.3125-.89l-16.2447-13a.5.5,0,0,0-.3124-.11H367.73a.4975.4975,0,0,0-.3581.1511l-12.668,13a.5.5,0,0,0,.3581.8489H361v45H327V255.9744a8.5181,8.5181,0,0,0,8-8.4744v-24a8.5,8.5,0,0,0-17,0v24a8.5181,8.5181,0,0,0,8,8.4744V269H292V248.95a12.8531,12.8531,0,1,0-1,.05v20H257V200.5a.5.5,0,0,0-.5-.5h-49a.5.5,0,0,0-.5.5V269H167V257.61a7.4243,7.4243,0,0,0,6.8994-7.3821V229.83a7.4283,7.4283,0,0,0-7.4082-7.4082h-.083A7.4281,7.4281,0,0,0,159,229.83v20.3974a7.4227,7.4227,0,0,0,7,7.3872V269H130.458a40,40,0,0,1,0-80H458.32a41,41,0,0,0,0-82H380V87.9747a13,13,0,1,0-1,0V107H343.3207a12.1754,12.1754,0,0,0-9.6395-22.3611l-10.152-21.3536A.5.5,0,0,0,323.0776,63H314.5a.5.5,0,0,0,0,1h8.2617l5.7051,12H303.0057l-2.3087-5H306.5a.5.5,0,0,0,0-1h-12a.5.5,0,0,0,0,1h5.0956l2.5359,5.492-8.8369,9.9207A12.1737,12.1737,0,1,0,280.723,107H255V71.5a.5.5,0,0,0-.5-.5h-74a.5.5,0,0,0-.5.5V107H105.5a.5.5,0,0,0,0,1H285.1033c.1678.0069.3326.0254.5022.0254s.3336-.0186.5012-.0254H337.94c.1678.0069.3326.0254.5022.0254s.334-.0185.5017-.0254H458.32a40,40,0,0,1,0,80H399V172h15.0576a.5.5,0,0,0,.4719-.6653l-15.27-43.5865a.5.5,0,0,0-.9438,0l-15.27,43.5865a.5.5,0,0,0,.4719.6653H398v16H360V167.4924a13.9934,13.9934,0,1,0-1,.0018V188H319V156.7414c.1336.0129.2629.04.4.04a4.1579,4.1579,0,0,0,4.1577-4.1577l-.0246-.1549-4.9287-15.1241c-.0061-.0186-.025-.0277-.033-.0453v-4.8a.5.5,0,0,0-.5-.5H247.31a.5.5,0,0,0-.5.5v4.8437l-.006.0083-4.687,15.124-.0224.148A4.12,4.12,0,0,0,247,156.7062V188H217V122.5a.5.5,0,0,0-.5-.5h-46a.5.5,0,0,0-.5.5V188H130.458a41,41,0,1,0,0,82H498.5a.5.5,0,1,0,0-1ZM321.2036,252.7964A7.4745,7.4745,0,0,1,319,247.5v-24a7.5,7.5,0,0,1,15,0v24a7.51,7.51,0,0,1-7,7.4745v-12.77l3.1085-4.8533a.5.5,0,0,0-.842-.5394L327,240.35V231.5a.5.5,0,0,0-1,0v8.85l-2.2665-3.5386a.5.5,0,1,0-.842.5394L326,242.2045v12.77A7.478,7.478,0,0,1,321.2036,252.7964Zm-38.6888-8.3112A12.021,12.021,0,1,1,292,247.95v-5.6006l3.1554-4.9264a.5.5,0,0,0-.842-.5394L292,240.4949V231.5a.5.5,0,0,0-1,0v8.8485l-2.22-3.4654a.5.5,0,0,0-.842.5394l3.0616,4.78V248A11.96,11.96,0,0,1,282.5148,244.4852ZM161.8828,254.753A6.386,6.386,0,0,1,160,250.2275V229.83a6.4284,6.4284,0,0,1,6.4082-6.4082h.083a6.4286,6.4286,0,0,1,6.4082,6.4082v20.3974A6.42,6.42,0,0,1,167,256.61v-8.6587l2.4-3.7479a.5.5,0,1,0-.842-.5393L167,246.0971V239.5a.5.5,0,0,0-1,0v6.7542l-1.6591-2.59a.5.5,0,1,0-.842.5393L166,248.1082v8.5067A6.3886,6.3886,0,0,1,161.8828,254.753ZM371.0148,83.4852A12.0358,12.0358,0,1,1,380,86.9747V80.7173l2.96-4.62a.5.5,0,1,0-.842-.5394L380,78.8633V70.5a.5.5,0,0,0-1,0v8.743l-2.3607-3.6856a.5.5,0,0,0-.8421.5394l3.16,4.9336.0052.0053a.4948.4948,0,0,0,.0374.0409v5.8981A11.954,11.954,0,0,1,371.0148,83.4852ZM181,87.5V72h73V87H181.5a.5.5,0,0,0,0,1H254v6H181Zm0,7.5h73v12H181ZM338.4424,84.6729A11.1689,11.1689,0,0,1,338.9443,107H337.94a11.1645,11.1645,0,0,1-4.7309-21.0253l5.1647,10.863a.5.5,0,1,0,.9031-.4294h0L334.111,85.5429A11.152,11.152,0,0,1,338.4424,84.6729ZM327.3743,77l-13.855,15.5541a3.6087,3.6087,0,0,0-3.025-.3357L303.4674,77ZM311.6226,93.03a2.815,2.815,0,1,1-2.815,2.8149A2.8219,2.8219,0,0,1,311.6226,93.03Zm-9.0339-15.5476L309.5828,92.63A3.6854,3.6854,0,0,0,307.9086,95H297.735a12.1224,12.1224,0,0,0-3.6961-7.9194Zm-9.0833,10.4632A11.1305,11.1305,0,0,1,296.7351,95h-9.75l6.39-7.1736C293.4168,87.8675,293.4637,87.9037,293.5054,87.9454Zm-15.8065,15.804a11.1737,11.1737,0,0,1,14.9288-16.5881l-7.1314,8.0061A.5.5,0,0,0,285.87,96h10.9a11.1409,11.1409,0,0,1-10.6626,11H285.103A11.135,11.135,0,0,1,277.6989,103.7494ZM290.4835,107A12.1779,12.1779,0,0,0,297.77,96h10.0532a3.8087,3.8087,0,1,0,6.5011-2.8461l14.5383-16.3213h0l3.9176,8.24A12.1682,12.1682,0,0,0,333.56,107Zm93.7385,64,14.5651-41.5743L413.3526,171H399v-6.777l4.2452-6.6282a.5.5,0,1,0-.842-.5393L399,162.369V149.5a.5.5,0,0,0-1,0v12.869l-3.4032-5.3135a.5.5,0,1,0-.842.5393L398,164.223V171Zm-33.9328-8.2892A13.038,13.038,0,1,1,360,166.4924V159.84l3.3185-5.1812a.5.5,0,0,0-.8421-.5394L360,157.9859V148.5a.5.5,0,0,0-1,0v9.4356l-2.4442-3.8162a.5.5,0,0,0-.8421.5394L359,159.79v6.7047A12.95,12.95,0,0,1,350.2892,162.7108ZM283,165h11v23H283Zm-1,23H271V165h11Zm37.4-32.2183A3.1508,3.1508,0,0,1,316.2811,153H322.5c.007,0,.0127-.0037.02-.004A3.1514,3.1514,0,0,1,319.4,155.7817ZM258.3946,138,256.81,152h-6.2553l2.4529-14Zm20.2739,0v14h-6.315V138ZM286,138v14h-6.3315V138Zm7,0v14h-6V138Zm6.856,0,.716,14H294V138Zm12.7883,0,2.4529,14h-6.2553l-1.5846-14Zm-6.3934,0,1.5846,14h-6.2623l-.716-14Zm-34.8974,14h-6.2741l.7159-14h5.5582Zm-7.2753,0h-6.2619l1.5847-14h5.3931Zm-7.3759,1a3.1419,3.1419,0,0,1-6.2713,0Zm7.3144,0a3.1416,3.1416,0,0,1-6.2707,0Zm7.315,0a3.1419,3.1419,0,0,1-6.2713,0Zm7.3149,0a3.1418,3.1418,0,0,1-6.2712,0Zm7.315,0a3.1419,3.1419,0,0,1-6.2713,0Zm7.3144,0a3.1416,3.1416,0,0,1-6.2708,0Zm7.3149,0a3.1418,3.1418,0,0,1-6.2712,0Zm7.315,0a3.1419,3.1419,0,0,1-6.2713,0Zm7.3149,0a3.1418,3.1418,0,0,1-6.2712,0Zm7.1076-1h-6.2159L313.66,138h4.1063Zm-4.7571-19v4H247.81v-4ZM247.65,138h4.3424l-2.4528,14h-6.2283Zm-4.5171,15h6.238a3.1394,3.1394,0,0,1-6.238,0ZM248,156.3843a4.1532,4.1532,0,0,0,1.8651-1.7416,4.1253,4.1253,0,0,0,7.359.0812,4.1226,4.1226,0,0,0,7.3145,0,4.123,4.123,0,0,0,7.315,0,4.1228,4.1228,0,0,0,7.3148,0,4.1229,4.1229,0,0,0,7.3149,0,4.1227,4.1227,0,0,0,7.3146,0,4.123,4.123,0,0,0,7.315,0,4.1228,4.1228,0,0,0,7.3148,0,4.1253,4.1253,0,0,0,7.359-.0811,4.1422,4.1422,0,0,0,2.2133,1.88V188H295V164.5a.5.5,0,0,0-.5-.5h-24a.5.5,0,0,0-.5.5V188H248ZM171,123h45v5H171Zm0,6h45v59H171Zm196.9409,82h61.6126l14.9951,12H356.2473ZM208,201h48v3H208Zm0,4h48v64H237.9565V250.978a5.9783,5.9783,0,0,0-11.9565,0V269H208Zm28.9565,64H227V250.978a4.9783,4.9783,0,0,1,9.9565,0ZM362,224h77v45H413V248.5a.5.5,0,0,0-.5-.5h-24a.5.5,0,0,0-.5.5V269H362Zm39,25h11v20H401Zm-12,0h11v20H389Z M384.8536,228.1464A.5035.5035,0,0,0,384.5,228h-15a.5.5,0,0,0-.5.5v14a.5.5,0,0,0,.5.5h15a.5.5,0,0,0,.5-.5v-14A.5035.5035,0,0,0,384.8536,228.1464ZM370,229h14v13H370Z M384.5,248h-15a.5.5,0,0,0-.5.5v14a.5.5,0,0,0,.5.5h15a.5.5,0,0,0,.5-.5v-14a.5.5,0,0,0-.5-.5ZM370,249h14v13H370Z M393.5,243h15a.5.5,0,0,0,.5-.5v-14a.5.5,0,0,0-.5-.5h-15a.5.5,0,0,0-.5.5v14a.5.5,0,0,0,.5.5Zm.5-14h14v13H394Z M416.5,243h15a.5.5,0,0,0,.5-.5v-14a.5.5,0,0,0-.5-.5h-15a.5.5,0,0,0-.5.5v14a.5.5,0,0,0,.5.5Zm.5-14h14v13H417Z M416.5,263h15a.5.5,0,0,0,.5-.5v-14a.5.5,0,0,0-.5-.5h-15a.5.5,0,0,0-.5.5v14a.5.5,0,0,0,.5.5Zm.5-14h14v13H417Z M398.5,259h-2a.5.5,0,0,0,0,1h2a.5.5,0,0,0,0-1Z M404.61,259h-2a.5.5,0,1,0,0,1h2a.5.5,0,0,0,0-1Z M223.8536,210.1464A.5035.5035,0,0,0,223.5,210h-10a.5.5,0,0,0-.5.5v14a.5.5,0,0,0,.5.5h10a.5.5,0,0,0,.5-.5v-14A.5035.5035,0,0,0,223.8536,210.1464ZM214,211h9v13h-9Z M226.5,225h10.9565a.5.5,0,0,0,.5-.5v-14a.5.5,0,0,0-.5-.5H226.5a.5.5,0,0,0-.5.5v14a.5.5,0,0,0,.5.5Zm.5-14h9.9565v13H227Z M240.5,225h10a.5.5,0,0,0,.5-.5v-14a.5.5,0,0,0-.5-.5h-10a.5.5,0,0,0-.5.5v14a.5.5,0,0,0,.5.5Zm.5-14h9v13h-9Z M223.5,228h-10a.5.5,0,0,0-.5.5v14a.5.5,0,0,0,.5.5h10a.5.5,0,0,0,.5-.5v-14a.5.5,0,0,0-.5-.5Zm-9.5,1h9v13h-9Z M226.5,243h10.9565a.5.5,0,0,0,.5-.5v-14a.5.5,0,0,0-.5-.5H226.5a.5.5,0,0,0-.5.5v14a.5.5,0,0,0,.5.5Zm.5-14h9.9565v13H227Z M240.5,243h10a.5.5,0,0,0,.5-.5v-14a.5.5,0,0,0-.5-.5h-10a.5.5,0,0,0-.5.5v14a.5.5,0,0,0,.5.5Zm.5-14h9v13h-9Z M223.5,245h-10a.5.5,0,0,0-.5.5v18a.5.5,0,0,0,.5.5h10a.5.5,0,0,0,.5-.5v-18a.5.5,0,0,0-.5-.5Zm-9.5,1h9v17h-9Z M240.5,264h10a.5.5,0,0,0,.5-.5v-18a.5.5,0,0,0-.5-.5h-10a.5.5,0,0,0-.5.5v18a.5.5,0,0,0,.5.5Zm.5-18h9v17h-9Z M234.9658,259.0625h-1.622a.5.5,0,0,0,0,1h1.622a.5.5,0,0,0,0-1Z M279.5,178.44h1a.5.5,0,0,0,0-1h-1a.5.5,0,0,0,0,1Z M285.6191,177.44h-1a.5.5,0,0,0,0,1h1a.5.5,0,0,0,0-1Z M266.5,164h-15a.5.5,0,0,0-.5.5v18a.5.5,0,0,0,.5.5h15a.5.5,0,0,0,.5-.5v-18a.5.5,0,0,0-.5-.5ZM252,165h14v17H252Z M299.5,183h15a.5.5,0,0,0,.5-.5v-18a.5.5,0,0,0-.5-.5h-15a.5.5,0,0,0-.5.5v18a.5.5,0,0,0,.5.5Zm.5-18h14v17H300Z M152.4761,51.4067a14.5,14.5,0,1,0-14.5,14.5A14.5,14.5,0,0,0,152.4761,51.4067Zm-14.5,13.5a13.5,13.5,0,1,1,9.5459-3.9539A13.4555,13.4555,0,0,1,137.9761,64.9067Z M111.0327,49.53l6.8222.6294a.5.5,0,0,0,.0919-.9958l-6.8222-.6294a.5.5,0,1,0-.0919.9958Z M111.74,45.0684l6.625,1.7461a.5.5,0,0,0,.2549-.967l-6.625-1.7461a.5.5,0,0,0-.2549.967Z M113.4051,40.25l6.185,2.9462a.5.5,0,1,0,.43-.9028l-6.1851-2.9463a.5.5,0,0,0-.43.9029Z M121.4666,39.868a.5.5,0,0,0,.59-.8073l-5.5307-4.0434a.5.5,0,1,0-.59.8072Z M123.928,36.9467a.5.5,0,0,0,.73-.6835l-4.6831-5.001a.5.5,0,0,0-.73.6835Z M126.889,34.5327a.5.5,0,1,0,.8441-.5361L124.06,28.2134a.5.5,0,1,0-.8441.5361Z M130.2469,32.7113a.5.5,0,0,0,.9291-.37l-2.5347-6.3653a.5.5,0,0,0-.9291.37Z M134.4709,31.94a.5.5,0,0,0,.3954-.5862l-1.3081-6.7246a.5.5,0,1,0-.9816.1909l1.3081,6.7246A.5.5,0,0,0,134.4709,31.94Z M138.0153,31.9067a.5.5,0,0,0,.4974-.5026l-.0366-7a.5.5,0,1,0-1,.0053l.0366,7A.5.5,0,0,0,138.0153,31.9067Z M111.0682,54.05l6.8335-.4922a.5.5,0,0,0-.0719-.9974l-6.8335.4922a.5.5,0,1,0,.0719.9974Z M141.89,31.8985a.5.5,0,0,0,.582-.4016l1.2363-6.7387a.5.5,0,1,0-.9836-.18l-1.2364,6.7388A.5.5,0,0,0,141.89,31.8985Z M145.4767,32.9089a.5.5,0,0,0,.6465-.2865l2.4663-6.3916a.5.5,0,1,0-.9329-.36L145.19,32.2624A.5.5,0,0,0,145.4767,32.9089Z M148.8126,34.5675a.5.5,0,0,0,.6885-.1614l3.6108-5.8223a.5.5,0,1,0-.85-.527l-3.6109,5.8222A.5.5,0,0,0,148.8126,34.5675Z M151.7828,36.8173a.5.5,0,0,0,.7064-.0307l4.6294-5.0508a.5.5,0,0,0-.7372-.6757l-4.6294,5.0508A.5.5,0,0,0,151.7828,36.8173Z M154.2837,39.5792a.5.5,0,0,0,.7.101l5.4863-4.1031a.5.5,0,1,0-.5988-.8008l-5.4864,4.103A.5.5,0,0,0,154.2837,39.5792Z M156.2277,42.7579a.5.5,0,0,0,.6689.2292l6.1533-3.0127a.5.5,0,1,0-.44-.8981l-6.1533,3.0127A.5.5,0,0,0,156.2277,42.7579Z M157.5477,46.242a.5.5,0,0,0,.6147.3494l6.6055-1.8174a.5.5,0,1,0-.2653-.9641l-6.6054,1.8174A.5.5,0,0,0,157.5477,46.242Z M158.1974,49.9109a.5.5,0,0,0,.5392.4575l6.8282-.5591a.5.5,0,1,0-.0817-.9966l-6.8281.5591A.5.5,0,0,0,158.1974,49.9109Z M165.9626,54.46a.5.5,0,0,0-.4448-.55l-6.8135-.7188a.5.5,0,1,0-.1049.9945l6.8135.7188A.5.5,0,0,0,165.9626,54.46Z M164.9393,59.5486a.5.5,0,0,0-.3349-.6227l-6.5611-1.9717a.5.5,0,0,0-.2878.9577l6.561,1.9717A.5.5,0,0,0,164.9393,59.5486Z M162.9892,64.3593a.5.5,0,0,0-.2134-.6742l-6.0806-3.1562a.5.5,0,1,0-.4607.8875l6.0806,3.1563A.5.5,0,0,0,162.9892,64.3593Z M160.18,68.7233a.5.5,0,0,0-.0845-.7021L154.7062,63.79a.5.5,0,0,0-.6175.7865l5.3891,4.231A.5.5,0,0,0,160.18,68.7233Z M156.6084,72.49a.5.5,0,0,0,.0474-.7055l-4.5093-5.1582a.5.5,0,1,0-.7529.6581l4.5092,5.1582A.5.5,0,0,0,156.6084,72.49Z M151.7155,75.35a.5.5,0,0,0,.862-.507l-3.4732-5.9057a.5.5,0,1,0-.8619.5069Z M145.0463,70.3414a.5.5,0,0,0-.3015.64l2.3159,6.4478a.5.5,0,0,0,.9411-.338l-2.3159-6.4478A.5.5,0,0,0,145.0463,70.3414Z M141.438,71.2689a.5.5,0,0,0-.4152.5724l1.0777,6.7661a.5.5,0,1,0,.9875-.1573L142.01,71.684A.5.5,0,0,0,141.438,71.2689Z M137.2057,71.9958l-.1977,6.8481a.5.5,0,1,0,1,.0289l.1978-6.8481a.5.5,0,1,0-1-.0289Z M133.4261,71.4384,131.96,78.1308a.5.5,0,1,0,.9768.2139l1.4659-6.6924a.5.5,0,1,0-.9769-.2139Z M127.3969,77.148a.5.5,0,0,0,.6559-.2641l2.6836-6.3038a.5.5,0,1,0-.92-.3917l-2.6835,6.3037A.5.5,0,0,0,127.3969,77.148Z M123.5245,74.5416l3.8077-5.6953a.5.5,0,1,0-.8313-.5558l-3.8077,5.6953a.5.5,0,0,0,.8313.5558Z M119.5106,71.399,124.31,66.51a.5.5,0,0,0-.7136-.7005l-4.7993,4.8891a.5.5,0,1,0,.7136.7005Z M116.15,67.5657l5.6241-3.9131a.5.5,0,0,0-.5712-.8209l-5.624,3.9131a.5.5,0,0,0,.5711.8209Z M113.56,63.1746l6.2525-2.8a.5.5,0,0,0-.4087-.9127l-6.2525,2.8a.5.5,0,0,0,.4087.9127Z M118.8643,56.1862a.5.5,0,0,0-.6025-.37l-6.664,1.59a.5.5,0,1,0,.2322.9727l6.664-1.59A.5.5,0,0,0,118.8643,56.1862Z M415,71h41a6.99,6.99,0,0,0,3.58-13H470a7,7,0,0,0,0-14H429a6.99,6.99,0,0,0-3.58,13H415a7,7,0,0,0,0,14Zm9.7629-15.7629A6,6,0,0,1,429,45h41a6,6,0,0,1,0,12H429A5.979,5.979,0,0,1,424.7629,55.2371Zm-14,4.5257A5.9793,5.9793,0,0,1,415,58h41a6,6,0,0,1,0,12H415a5.9922,5.9922,0,0,1-4.2371-10.2372Z M251.3245,49.2952a.5.5,0,0,0,.68-.1935l.0148-.0253a7.1454,7.1454,0,0,1,1.389-1.6309,5.1838,5.1838,0,0,1,3.4195-1.3615,6.9241,6.9241,0,0,1,3.8757,1.3749.5.5,0,0,0,.7227-.1811l.0136-.0247a6.783,6.783,0,0,1,1.3153-1.6082,4.8976,4.8976,0,0,1,3.3-1.3409,6.912,6.912,0,0,1,3.8592,1.3815.5.5,0,0,0,.5607-.8281,7.9022,7.9022,0,0,0-4.42-1.5534,5.964,5.964,0,0,0-4.1433,1.7591,7.96,7.96,0,0,0-1.0865,1.2894,7.6366,7.6366,0,0,0-3.9976-1.2685,6.2544,6.2544,0,0,0-4.2577,1.77,7.89,7.89,0,0,0-1.4391,1.7609A.5.5,0,0,0,251.3245,49.2952Z M471.6633,86.3927a5.9315,5.9315,0,0,0-3.2674-.9385,7.9986,7.9986,0,0,0-3.447.8177.5.5,0,0,0,.4714.882h0l.0089-.0047a7.0816,7.0816,0,0,1,2.9668-.695,4.9286,4.9286,0,0,1,2.7242.7781,6.9356,6.9356,0,0,1,2.5047,3.246.5.5,0,0,0,.7058.2386l.0086-.0047a6.6936,6.6936,0,0,1,2.9284-.7268,4.6538,4.6538,0,0,1,2.62.77,6.9709,6.9709,0,0,1,2.4434,3.2138.5.5,0,0,0,.92-.3931,7.9617,7.9617,0,0,0-2.81-3.6542,5.6585,5.6585,0,0,0-3.1729-.9368,7.5978,7.5978,0,0,0-2.9415.6289A7.6454,7.6454,0,0,0,471.6633,86.3927Z" fill-rule="evenodd"></path>
</svg>